<svg version="1.1"
     xmlns="http://www.w3.org/2000/svg" xmlns:xlink="http://www.w3.org/1999/xlink"
     x="0px" y="0px" width="240.4957px" height="42.9535px" viewBox="0 0 240.4957 42.9535">
<g>
    <path fill="#ffffff" d="M29.0936,25.8592c-0.1192-0.267-0.27-0.516-0.446-0.7423c-0.1923-0.2453-0.4143-0.4642-0.6619-0.652
        c-0.6006-0.4559-1.3466-0.7301-2.1567-0.7301c-0.8199,0-1.5755,0.2803-2.1806,0.7476c-0.8477,0.6543-1.3969,1.6783-1.3969,2.8292
        c0,0.0236,0.003,0.0461,0.003,0.0697c0.008,0.3462,0.0606,0.6794,0.1588,0.9955c0.4555,1.454,1.8147,2.5116,3.4157,2.5116
        c1.9723,0,3.5756-1.6048,3.5756-3.5767C29.4048,26.7941,29.292,26.3032,29.0936,25.8592z"/>
    <circle fill="#ffffff" cx="32.3381" cy="30.1792" r="2.0619"/>
    <path fill="#ffffff" d="M5.0605,19.021h0.874v0.8733c0,2.79,2.269,5.0605,5.0601,5.0605c0.6097,0,1.2049-0.1077,1.7724-0.3195
        l0.7438-0.2776l0.3477,0.7125c0.8558,1.7591,2.5999,2.8513,4.5528,2.8513c0.7438,0,1.4559-0.1588,2.1018-0.4517
        c-0.0015-0.0533-0.008-0.1051-0.008-0.158c0-2.9355,2.3874-5.3248,5.324-5.3248c1.3992,0,2.6708,0.548,3.6213,1.4338
        c0.8877-0.9128,1.4388-2.1551,1.4388-3.5265V19.021h0.8729c2.7911,0,5.0612-2.2701,5.0612-5.0612
        c0-2.7896-2.2701-5.0593-5.0612-5.0593h-0.8729V8.0268c0-2.79-2.2705-5.0597-5.0601-5.0597c-0.6089,0-1.2061,0.1074-1.7728,0.3192
        L23.3122,3.565l-0.3469-0.7148C22.1103,1.0918,20.3646,0,18.4113,0c-1.9529,0-3.6971,1.0918-4.5528,2.8501L13.5107,3.565
        L12.767,3.2862c-0.5674-0.2118-1.1627-0.3192-1.7724-0.3192c-2.7911,0-5.0601,2.2697-5.0601,5.0597v0.8737h-0.874
        C2.2705,8.9004,0,11.1702,0,13.9598C0,16.7509,2.2705,19.021,5.0605,19.021z M13.2042,7.5984c0-0.4029,0.2384-0.7655,0.623-1.0279
        c0.0469-0.0316,0.0956-0.062,0.1455-0.0902c0.0251-0.0141,0.0522-0.027,0.0796-0.0408c0.0282-0.0145,0.0552-0.0297,0.0857-0.0434
        c0.0301-0.0137,0.0632-0.0271,0.0956-0.0396c0.0263-0.0114,0.0518-0.0229,0.0804-0.0331c0.0316-0.0118,0.0659-0.0225,0.0986-0.0331
        c0.0301-0.0095,0.0587-0.0194,0.0868-0.0278c0.0328-0.0088,0.0651-0.0171,0.099-0.0255c0.0312-0.0069,0.0632-0.0156,0.0948-0.0217
        c0.0335-0.0069,0.0678-0.0122,0.1017-0.0179c0.0324-0.0061,0.0655-0.0122,0.0986-0.0168c0.0388-0.0053,0.0792-0.0087,0.1188-0.0126
        c0.0282-0.003,0.0556-0.0069,0.0845-0.0087c0.0682-0.0046,0.1371-0.0065,0.2068-0.0065c0.0708,0,0.139,0.0019,0.2072,0.0065
        c0.0286,0.0019,0.0575,0.0065,0.0849,0.0087c0.0408,0.0038,0.0796,0.0073,0.12,0.0126c0.0316,0.0046,0.0651,0.0107,0.0983,0.0168
        c0.0335,0.0057,0.067,0.011,0.1001,0.0179c0.032,0.0061,0.0651,0.0149,0.0952,0.0229c0.0331,0.0073,0.0666,0.0156,0.0983,0.0244
        c0.0305,0.0084,0.0587,0.019,0.0884,0.0286c0.0324,0.0103,0.0659,0.0206,0.0975,0.0324c0.0285,0.0103,0.0556,0.0221,0.0826,0.0335
        c0.0316,0.0126,0.0636,0.0255,0.0937,0.0388c0.0312,0.0145,0.0594,0.0297,0.0887,0.0449c0.0255,0.0133,0.0526,0.0255,0.0762,0.0396
        c0.0533,0.0297,0.1051,0.0613,0.1542,0.0952v0.0004l8.9107,6.1364c0.8207,0.5644,0.8207,1.4795,0,2.0447l-8.9099,6.1348
        l-0.0007,0.0019c-0.0491,0.0331-0.1017,0.0651-0.1542,0.0952c-0.0217,0.0133-0.0476,0.0236-0.0705,0.0362
        c-0.0308,0.0175-0.0628,0.0339-0.0945,0.0476c-0.0289,0.0145-0.059,0.0255-0.0887,0.0377
        c-0.029,0.0118-0.0583,0.0244-0.0876,0.0354c-0.0301,0.0118-0.0621,0.0206-0.0933,0.0312
        c-0.0301,0.0103-0.0613,0.0213-0.0925,0.0293c-0.0316,0.0088-0.0621,0.0156-0.0933,0.024
        c-0.0335,0.0076-0.067,0.0175-0.1001,0.0236c-0.0316,0.0065-0.0636,0.0118-0.0956,0.0175
        c-0.0347,0.0065-0.0693,0.0126-0.1044,0.0175c-0.0365,0.0046-0.0746,0.0076-0.1112,0.0107
        c-0.0301,0.0042-0.0609,0.0084-0.0921,0.0099c-0.0682,0.0046-0.1363,0.0072-0.2072,0.0072c-0.0693,0-0.1386-0.0027-0.2068-0.0072
        c-0.0301-0.0015-0.059-0.0057-0.0884-0.0088c-0.0388-0.0042-0.0769-0.0072-0.115-0.0118c-0.0343-0.005-0.0682-0.011-0.1021-0.0167
        c-0.0312-0.0065-0.0655-0.0118-0.0975-0.0183c-0.0324-0.0061-0.0655-0.0145-0.0975-0.0232
        c-0.0324-0.0087-0.0651-0.0149-0.0971-0.0244c-0.0297-0.008-0.0587-0.019-0.0888-0.0285c-0.0312-0.0095-0.0651-0.0202-0.0967-0.032
        c-0.0286-0.011-0.0552-0.0221-0.0826-0.0331c-0.0316-0.0126-0.0632-0.0255-0.0933-0.04c-0.0305-0.0133-0.059-0.0293-0.0895-0.0441
        c-0.0251-0.0133-0.0507-0.0252-0.0758-0.0396c-0.051-0.0289-0.1017-0.0606-0.1508-0.0937c-0.3812-0.262-0.6177-0.6238-0.6177-1.026
        V7.5984z"/>
    <path fill="#ffffff" d="M100.457,26.332c0.1858-0.2757-0.5536-1.2103-0.7271-1.0015c-1.2744,1.3811-3.0527,2.6952-4.85,2.6952
        c-1.5211,0-1.9066-1.1759-1.6296-2.7992c0.089-0.5188,0.2188-1.0719,0.4623-1.6938c5.5993,0,9.3786-3.1103,9.8292-5.736
        c0.3317-1.9351-0.4252-3.7667-3.5019-3.7667c-2.058,0-4.7885,1.2952-7.1696,3.3333c0.0149-0.1301,0.0244-0.2598,0.0244-0.3959
        c0-1.7625-1.2089-2.9374-2.9718-2.9374c-2.1073,0-3.731,2.2451-6.0471,6.7028l1.0023-2.6943
        c0.1026-0.3118,0.1722-0.6567,0.1722-1.0367c0-1.7629-1.2432-2.9718-3.2136-2.9718c-1.3332,0-2.7432,0.7561-3.8499,1.6359
        c0.0045-0.061,0.0149-0.1224,0.0199-0.1848c0.4447-5.5988-2.6234-10.0556-14.925-10.0556c-13.304,0-20.1329,5.9075-20.5252,10.8496
        c-0.2765,3.4915,1.6879,5.7371,5.0755,5.7371c2.4865,0,4.0781-1.7625,4.1771-3.0066c0.1017-1.2789-0.4772-2.2451-1.8949-2.2451
        c-1.6242,0-1.725,2.1421-3.1765,2.1421c-1.3481,0-2.3875-0.8293-2.2126-3.041c0.3353-4.216,7.3323-7.914,11.6852-7.914
        c0.7949,0,1.3644,0.2423,0.9034,1.6938L52.0495,25.571c-0.55,1.6938-0.9703,2.6265-3.6867,2.904
        c-0.211,0.0344-0.6159,0.7945-0.6386,1.0701c-0.019,0.2423,0.0307,0.4845,0.1713,0.4492c1.5618-0.0677,5.6119-0.1717,7.2018-0.1717
        c1.6237,0,4.0695,0.1039,5.5893,0.1039c7.6776,0,14.6281-4.7488,16.7214-11.3858c0.5685-0.5636,1.3449-1.4358,1.837-1.4358
        c0.2074,0,0.31,0.1387,0.31,0.381c0,0.3443-0.1713,0.8979-0.4483,1.7286l-3.421,10.3306
        c-0.1392,0.3815,2.2813,0.5884,2.8335,0.5884c0.5527,0,2.5574-0.2069,2.6957-0.5884c2.0043-5.9074,4.8034-11.3682,6.2894-11.3682
        c1.3476,0,0.9332,1.6929,2.7639,1.6929c0.066,0,0.1292-0.005,0.1925-0.0086c-1.3602,1.7164-2.3834,3.6906-2.7354,5.7459
        c-0.4786,2.7992,1.5731,4.9404,4.8224,4.9404C95.4846,30.5475,99.0529,28.475,100.457,26.332z M98.6819,16.31
        c0.691,0,0.7927,0.4144,0.6625,1.1759c-0.3425,2.0038-2.5827,4.3881-5.0714,4.3881C95.1796,19.0057,97.2308,16.31,98.6819,16.31z
         M71.4697,14.238c-0.6001,7.5673-5.0348,14.2369-11.0629,13.9947l-0.86-0.0353c-0.9667-0.0343-1.3901-0.3453-0.8419-2.039
        l5.2142-16.483c0.5491-1.6929,1.0168-1.9346,2.0969-2.0386C70.5388,7.2568,71.7278,10.9882,71.4697,14.238z"/>
    <path fill="#ffffff" d="M119.7019,26.4703c0-0.2079-0.4492-0.8631-0.8297-0.8631c-0.3453,0-1.4859,1.6242-2.5221,1.6242
        c-0.2069,0-0.277-0.1392-0.277-0.4148c0-0.3119,0.2431-0.865,0.5879-1.6947l4.4229-10.0897
        c0.1397-0.31-1.4502-0.7601-2.6618-0.7601c-1.0023,0-2.3491,0.1035-2.4878,0.4145l-0.6205,1.5211
        c0-1.1407-1.1755-1.9356-2.4535-1.9356c-4.5964,0-11.8881,7.153-11.8881,12.1641c0,2.4187,1.3133,4.1116,3.5606,4.1116
        c2.383,0,4.6981-1.9342,6.5989-4.699c-0.4492,0.8631-0.6915,1.6594-0.6915,2.6265c0,1.3124,1.0023,2.0725,2.8692,2.0725
        C115.7978,30.5475,119.7019,27.3687,119.7019,26.4703z M107.1228,27.4383c-0.7592,0-1.0019-0.3118-1.0019-1.0023
        c0-3.0766,6.0128-10.0219,7.7066-10.0219c0.3805,0,0.5522,0.2427,0.5522,0.7949
        C114.3797,19.6284,109.1275,27.4383,107.1228,27.4383z"/>
    <path fill="#ffffff" d="M148.8989,25.9171c0-0.2079-0.4497-0.8631-0.7949-0.8631c-0.3453,0-2.0734,2.1773-3.0748,2.1773
        c-0.2079,0-0.3127-0.0361-0.3127-0.3109c0-0.2423,0.1396-0.7963,0.5879-1.7987l2.6261-5.7707
        c0.3466-0.7592,0.5527-1.4167,0.5527-2.3147c0-1.6585-1.001-3.0062-3.1092-3.0062c-2.3848,0-5.1492,2.3156-7.2225,5.5635
        l0.1731-0.4144c0.4483-0.8311,0.588-1.4524,0.588-2.2812c0-1.3129-0.6575-2.8679-2.6957-2.8679
        c-2.5226,0-5.2531,2.0038-7.5691,5.4596l0.1731-0.3801c0.3457-0.7615,0.5536-1.3828,0.5536-2.2116
        c0-1.5881-0.8632-2.8679-2.9723-2.8679c-2.7635,0-6.7037,4.1111-6.7037,4.9417c0,0.1713,0.4831,0.8631,0.8641,0.8631
        c0.3457,0,2.523-2.73,3.2475-2.73c0.2431,0,0.4144,0.1387,0.4144,0.5183c0,0.3467-0.1713,0.8297-0.5175,1.5912l-4.699,10.1941
        c-0.1731,0.3444,1.3815,0.7249,2.6261,0.7249c1.0028,0,2.6948-0.3109,2.9036-0.7249l1.3463-2.9384
        c2.8335-6.1861,5.9436-9.0544,7.4652-9.0544c0.2418,0,0.3792,0.1396,0.3792,0.5183c0,0.3457-0.1374,0.8306-0.5179,1.5899
        l-4.7338,9.8845c-0.1735,0.3444,1.4163,0.7249,2.6948,0.7249c0.9671,0,2.6609-0.2765,2.8678-0.7249l1.3829-2.9384
        c2.9027-6.1513,5.7023-9.0544,7.1878-9.0544c0.2417,0,0.4153,0.1396,0.4153,0.5183c0,0.3457-0.1392,0.8306-0.5201,1.5899
        l-3.144,6.497c-0.3791,0.7592-0.5527,1.4515-0.5527,2.1077c0,1.2798,0.8288,2.4187,2.7305,2.4187
        C144.5791,30.5475,148.8989,26.7116,148.8989,25.9171z"/>
    <path fill="#ffffff" d="M157.0208,26.7469c0.0253-0.3109,0.127-0.7258,0.2666-1.1759l4.7985-15.1693
        c0.5965-1.866,0.93-2.5913,3.6845-2.9022c0.2106-0.0357,0.6173-0.7949,0.6386-1.0719c0.0226-0.2766-0.0678-0.4492-0.1713-0.4492
        c-2.0386,0-4.4017,0.1726-6.2337,0.1726c-1.8311,0-4.0993-0.1726-6.3806-0.1726c-0.207,0-0.5672,0.6214-0.5916,0.9332
        c-0.0113,0.1373,0.0244,0.5522,0.1261,0.5879c2.3974,0.2761,2.4625,0.7592,2.3852,1.7277
        c-0.0267,0.3443-0.1261,0.7253-0.2657,1.1745l-4.8324,15.1693c-0.5974,1.8673-0.8979,2.5922-3.6524,2.904
        c-0.2449,0.0344-0.6046,0.6571-0.6264,0.9337c-0.0217,0.2748,0.0231,0.5857,0.1252,0.5857c2.0739,0,4.4379-0.1717,6.2355-0.1717
        c1.8311,0,4.0975,0.1717,6.3784,0.1717c0.2074,0,0.602-0.6218,0.6273-0.9327c0.0135-0.1726-0.0253-0.5522-0.1261-0.5866
        C156.9747,28.1975,156.9444,27.7139,157.0208,26.7469z"/>
    <path fill="#ffffff" d="M218.5457,32.1716c-2.2451,0-3.1218,1.4515-3.2317,2.8335c-0.1572,1.9694,2.6374,2.0382,2.5004,3.7681
        c-0.1202,1.5203-1.0538,2.3834-3.3681,2.3834c-2.4091,0-7.0449-3.4499-11.4308-11.024c0.6611,0.2666,1.4249,0.4149,2.2735,0.4149
        c2.937,0,6.5058-2.0725,7.9081-4.2155c0.1871-0.2757-0.5513-1.2103-0.7249-1.0015c-1.2753,1.3811-3.0545,2.6952-4.8518,2.6952
        c-1.5193,0-1.9062-1.1759-1.6287-2.7992c0.0886-0.5188,0.2183-1.0719,0.4632-1.6938c5.5992,0,9.3786-3.1103,9.8283-5.736
        c0.3317-1.9351-0.4266-3.7667-3.5024-3.7667c-4.1464,0-11.0218,5.2454-12.251,11.2697c-0.9576-2.0942-1.8755-4.4064-2.7269-6.9516
        c3.2307-0.6553,7.0377-3.351,7.308-6.7372c0.2413-3.0414-2.2388-6.1854-10.3597-6.1854c-13.924,0-20.4533,5.0633-21.9103,9.3995
        h-2.6948l1.2771-3.7333c0.1397-0.3787-1.9681-0.5879-2.556-0.5879c-0.588,0-2.8344,0.2092-2.9709,0.5879l-1.2798,3.7333H161.61
        c-0.2413,0-0.691,0.7601-0.691,1.2441c0,0.3109,0.1039,0.8289,0.381,0.8289l2.6257-0.0692l-3.0401,8.95
        c-0.2431,0.6571-0.3457,1.175-0.3457,1.7986c0,1.8646,1.2781,2.97,3.2479,2.97c2.9718,0,7.3947-4.1459,7.3947-4.6647
        c0-0.207-0.7262-0.8975-1.0719-0.8975c-0.3787,0-2.1412,2.246-3.3853,2.246c-0.2766,0-0.3805-0.2079-0.3805-0.5531
        c0-0.4157,0.1735-1.0023,0.3448-1.5564l2.7996-8.3277l3.0197,0.0908c-0.0113,3.1399,1.9138,5.1275,5.0985,5.1275
        c2.4874,0,4.0794-1.7625,4.1775-3.0066c0.1021-1.2789-0.4781-2.2451-1.8944-2.2451c-1.6247,0-1.7245,2.1421-3.177,2.1421
        c-1.3467,0-2.387-0.8293-2.2108-3.041c0.3172-4.0094,7.054-7.914,11.6861-7.914c0.7936,0,1.3621,0.2423,0.9007,1.6938
        L182.024,25.571c-0.554,1.7634-0.6141,2.5235-4.0654,2.904c-0.2449,0.0344-0.4668,0.6571-0.4899,0.9337
        c-0.0208,0.2748,0.0248,0.5857,0.127,0.5857c2.0738,0,4.7139-0.1717,6.5107-0.1717c1.8325,0,4.0985,0.1717,6.3784,0.1717
        c0.2088,0,0.4646-0.6218,0.4899-0.9327c0.0127-0.1726-0.0253-0.5522-0.127-0.5866c-1.9527-0.2088-2.3644-0.6923-2.2813-1.7281
        c0.0244-0.3109,0.1604-0.7258,0.2996-1.1759l1.9812-6.22c0.9328,0,1.457,0.7949,1.6753,1.5207
        c4.1048,13.5821,11.8967,22.0818,20.8135,22.0818c4.7686,0,7.9185-3.1083,8.1503-6.0467
        C221.7113,34.0724,220.5838,32.1716,218.5457,32.1716z M211.4225,16.31c0.6919,0,0.7936,0.4144,0.6634,1.1759
        c-0.3434,2.0038-2.5827,4.3881-5.0714,4.3881C207.9211,19.0057,209.9715,16.31,211.4225,16.31z M192.5342,17.6929h-1.1759
        l2.9926-9.3985c0.272-0.8307,0.6431-1.1415,1.6454-1.1415c1.7272,0,2.7775,1.1415,2.5773,3.6628
        C198.2419,14.9972,195.4704,17.6929,192.5342,17.6929z"/>
    <path fill="#ffffff" d="M226.0168,25.3305c-1.2753,1.3811-3.0536,2.6952-4.8504,2.6952c-1.5207,0-1.9066-1.1759-1.6296-2.7992
        c0.0882-0.5188,0.2188-1.0719,0.4637-1.6938c5.5983,0,9.3773-3.1103,9.8274-5.736c0.3317-1.9351-0.4257-3.7667-3.5023-3.7667
        c-4.215,0-11.26,5.4248-12.3138,11.577c-0.479,2.7992,1.5736,4.9404,4.8219,4.9404c2.937,0,6.5071-2.0725,7.9103-4.2155
        C226.9287,26.0563,226.1903,25.1217,226.0168,25.3305z M224.9679,16.31c0.6909,0,0.7926,0.4144,0.6629,1.1759
        c-0.343,2.0038-2.5827,4.3881-5.0714,4.3881C221.4655,19.0057,223.5172,16.31,224.9679,16.31z"/>
    <path fill="#ffffff" d="M240.3236,6.0122c0.1048-0.3453,0.1721-0.6562,0.1721-0.8975c0-0.207-0.103-0.3805-0.3452-0.3805
        c-0.2061,0-0.6905,0.1735-0.8636,0.2418c-1.4868,0.5531-5.7027,1.5216-7.707,1.8325c-0.1717,0-0.2409,0.4483-0.2409,0.691
        c0,0.2413,0.1383,0.6905,0.2771,0.7253c1.278,0.1387,1.8655,0.3448,1.8655,0.8288c0,0.3457-0.1383,0.8288-0.3805,1.555
        l-4.8726,15.4124c-0.2413,0.7592-0.3457,1.4172-0.3457,2.0047c0,1.6242,0.8659,2.5217,2.4878,2.5217
        c3.04,0,7.0151-3.5575,7.0151-4.3529c0-0.207-0.4487-0.8641-0.7949-0.8641c-0.3448,0-1.7973,1.9008-2.8335,1.9008
        c-0.1731,0-0.2417-0.0361-0.2417-0.2079c0-0.2069,0.2074-0.7954,0.5527-1.9017L240.3236,6.0122z"/>
</g>
</svg>
