<?xml version="1.0" encoding="UTF-8" standalone="no"?>
<svg width="50px" height="50px" viewBox="0 0 50 50" version="1.1" xmlns="http://www.w3.org/2000/svg" xmlns:xlink="http://www.w3.org/1999/xlink" xmlns:sketch="http://www.bohemiancoding.com/sketch/ns">
  <title>Shape</title>
  <desc>Created with Sketch.</desc>
  <defs></defs>
  <g id="Page-1" stroke="none" stroke-width="1" fill="none" fill-rule="evenodd" sketch:type="MSPage">
    <g id="pencil43" sketch:type="MSLayerGroup" fill="#16A085">
      <path d="M48.1716797,15.0893555 L45.962207,17.3003906 L32.7022461,4.04199219 L34.9117187,1.83095703 C37.353125,-0.610449219 41.3112305,-0.610449219 43.7526367,1.83095703 L48.171582,6.25146484 C50.6099609,8.69140625 50.6099609,12.6479492 48.1716797,15.0893555 L48.1716797,15.0893555 Z M17.2329102,41.6045898 C16.6225586,42.2149414 16.6225586,43.2037109 17.2329102,43.8140625 C17.8432617,44.4274414 18.8320312,44.4274414 19.4423828,43.8140625 L43.7527344,19.5098633 L41.5402344,17.2988281 L17.2329102,41.6045898 L17.2329102,41.6045898 Z M6.18251953,30.5572266 C5.57216797,31.1675781 5.57216797,32.1563477 6.18251953,32.7666992 C6.79287109,33.3770508 7.78164063,33.3770508 8.39199219,32.7666992 L32.7022461,8.4609375 L30.4927734,6.25146484 L6.18251953,30.5572266 L6.18251953,30.5572266 Z M34.9086914,10.6689453 L10.6014648,34.9761719 C9.38076172,36.1938477 9.38378906,38.1744141 10.6014648,39.3951172 C11.822168,40.6158203 13.799707,40.6219727 15.0234375,39.3920898 L39.3306641,15.0894531 L34.9086914,10.6689453 L34.9086914,10.6689453 Z M15.0173828,46.0174805 C14.2697266,45.2698242 13.9095703,44.3207031 13.775293,43.3441406 C13.4579102,43.3929687 13.1375,43.4387695 12.8109375,43.4387695 C11.1416016,43.4387695 9.57304687,42.7856445 8.39199219,41.6046875 C7.2109375,40.4206055 6.5609375,38.8550781 6.5609375,37.1857422 C6.5609375,36.8805664 6.60673828,36.5845703 6.64941406,36.2884766 C5.63925781,36.1511719 4.70546875,35.7085937 3.97304687,34.9761719 C3.90283203,34.905957 3.87841797,34.8113281 3.81435547,34.7350586 L-0.000390625,50 L15.2248047,46.1883789 C15.1577148,46.1273437 15.0814453,46.081543 15.0173828,46.0174805 L15.0173828,46.0174805 Z" id="Shape" sketch:type="MSShapeGroup"></path>
    </g>
  </g>
</svg>
