<?xml version="1.0" encoding="UTF-8" standalone="no"?>
<svg width="58px" height="50px" viewBox="0 0 58 50" version="1.1" xmlns="http://www.w3.org/2000/svg" xmlns:xlink="http://www.w3.org/1999/xlink" xmlns:sketch="http://www.bohemiancoding.com/sketch/ns">
  <title>Shape</title>
  <desc>Created with Sketch.</desc>
  <defs></defs>
  <g id="Page-1" stroke="none" stroke-width="1" fill="none" fill-rule="evenodd" sketch:type="MSPage">
    <g id="screen-icon" sketch:type="MSLayerGroup" fill="#16A085">
      <g id="Page-1" sketch:type="MSShapeGroup">
        <g id="desktop1">
          <path d="M54.375,0 L3.625,0 C1.624,0 0,1.6 0,3.57142857 L0,35.7142857 C0,37.6857143 1.624,39.2857143 3.625,39.2857143 L21.746375,39.2857143 C21.739125,41.8678571 21.634,45.2214286 20.64075,46.4285714 L19.9085,46.4285714 C18.9225,46.4285714 18.125,47.2321429 18.125,48.2142857 C18.125,49.1964286 18.9225,50 19.9085,50 L38.087875,50 C39.073875,50 39.875,49.1964286 39.875,48.2142857 C39.875,47.2321429 39.073875,46.4285714 38.0915,46.4285714 L37.362875,46.4285714 C36.366,45.2214286 36.260875,41.8678571 36.253625,39.2857143 L54.375,39.2857143 C56.376,39.2857143 58,37.6857143 58,35.7142857 L58,3.57142857 C58,1.6 56.376,0 54.375,0 L54.375,0 L54.375,0 Z M54.375,32.1428571 L3.625,32.1428571 L3.625,3.57142857 L54.375,3.57142857 L54.375,32.1428571 L54.375,32.1428571 Z" id="Shape"></path>
        </g>
      </g>
    </g>
  </g>
</svg>
